<?xml version="1.0" encoding="UTF-8" ?>
<!DOCTYPE svg PUBLIC "-//W3C//DTD SVG 1.1//EN" "http://www.w3.org/Graphics/SVG/1.1/DTD/svg11.dtd">
<svg width="500pt" height="500pt" viewBox="0 0 500 500" version="1.1" xmlns="http://www.w3.org/2000/svg">
<g id="#ffffffff">
<path fill="#ffffff" opacity="1.00" d=" M 0.00 0.00 L 500.00 0.00 L 500.00 500.00 L 0.00 500.00 L 0.00 0.00 M 50.00 50.00 C 50.00 183.33 50.00 316.67 50.00 450.00 C 183.33 450.00 316.67 450.00 450.00 450.00 C 450.00 316.67 450.00 183.33 450.00 50.00 C 316.67 50.00 183.33 50.00 50.00 50.00 Z" />
<path fill="#ffffff" opacity="1.00" d=" M 326.08 133.04 C 353.08 103.78 381.12 75.13 413.00 51.11 C 420.52 60.90 427.76 70.91 435.50 80.53 C 438.08 83.95 441.03 87.11 443.27 90.77 C 416.90 110.94 393.23 134.36 370.57 158.55 C 320.73 212.35 275.97 270.59 232.93 329.90 C 208.59 363.47 185.21 397.72 162.21 432.21 C 157.89 439.05 150.15 443.61 142.06 443.95 C 134.92 444.32 127.77 441.24 122.96 436.03 C 120.98 432.95 118.96 429.88 117.24 426.65 C 103.94 389.58 83.48 355.58 61.50 323.08 C 75.23 313.82 88.75 304.26 102.15 294.53 C 118.66 317.33 132.81 341.78 145.89 366.69 C 201.80 285.75 260.03 206.09 326.08 133.04 Z" />
</g>
</svg>
