<?xml version="1.0" encoding="UTF-8" ?>
<!DOCTYPE svg PUBLIC "-//W3C//DTD SVG 1.1//EN" "http://www.w3.org/Graphics/SVG/1.1/DTD/svg11.dtd">
<svg width="260pt" height="95pt" viewBox="0 0 260 95" version="1.1" xmlns="http://www.w3.org/2000/svg">
<g id="#ffffffff">
<path fill="#ffffff" opacity="1.00" d=" M 29.70 3.64 C 35.36 1.62 41.51 2.10 47.42 2.00 C 37.91 19.69 28.85 37.61 19.71 55.49 C 18.19 59.27 15.13 62.90 15.68 67.17 C 17.30 66.91 18.93 66.43 20.09 65.20 C 26.81 59.01 30.26 50.35 34.73 42.58 C 41.43 29.90 47.93 17.11 54.65 4.44 C 59.74 3.01 65.31 2.92 70.58 2.01 C 60.58 21.23 50.42 40.37 40.75 59.77 C 39.57 62.97 36.82 66.50 38.43 69.96 C 34.27 69.78 29.09 69.93 26.45 66.06 C 26.53 64.47 26.58 62.88 26.55 61.28 C 22.91 65.15 18.97 70.27 13.07 70.00 C 9.46 69.89 4.07 69.51 3.16 65.14 C 2.62 60.13 5.17 55.50 7.15 51.08 C 14.91 35.81 22.78 20.59 30.92 5.52 L 29.70 3.64 Z" />
<path fill="#ffffff" opacity="1.00" d=" M 146.03 2.96 C 152.97 1.90 160.20 1.44 167.09 3.07 C 172.24 4.35 177.34 7.63 179.10 12.87 C 181.19 19.19 178.85 26.06 175.28 31.39 C 167.73 42.49 154.35 48.93 141.04 49.04 C 137.65 56.02 134.29 63.02 130.90 70.00 C 125.93 70.00 120.97 70.00 116.00 70.00 C 125.84 49.84 135.66 29.68 145.50 9.52 C 150.73 8.78 155.96 8.05 161.19 7.32 C 154.85 20.60 148.29 33.77 142.06 47.10 C 147.49 46.09 151.73 42.24 155.29 38.26 C 160.70 31.84 165.07 24.20 166.45 15.84 C 167.09 11.85 166.35 6.58 162.17 4.81 C 157.71 3.28 152.75 4.07 148.37 5.52 C 135.84 10.26 127.66 23.79 127.66 36.93 C 124.92 36.78 122.22 36.12 120.02 34.41 C 115.67 43.86 110.32 52.85 106.42 62.51 C 105.63 63.93 105.35 66.90 107.89 65.85 C 113.44 62.92 116.33 56.87 119.86 51.94 C 117.09 57.95 113.65 64.12 107.85 67.67 C 103.98 69.93 99.05 70.77 94.78 69.20 C 92.11 68.06 91.91 64.66 92.39 62.22 C 89.20 66.40 84.43 69.65 79.07 69.95 C 76.49 70.10 73.25 69.93 71.68 67.54 C 70.39 65.13 71.26 62.29 72.12 59.89 C 74.76 53.25 78.69 47.22 81.46 40.65 C 82.13 39.17 82.40 37.56 82.18 35.95 C 78.66 35.82 76.62 39.14 74.62 41.51 C 68.31 50.39 63.45 60.21 58.60 69.92 C 53.67 70.08 48.74 69.97 43.81 70.00 C 49.96 57.39 56.13 44.81 62.30 32.21 C 67.56 31.47 72.82 30.74 78.08 30.01 C 76.49 33.25 74.94 36.51 73.28 39.72 C 76.04 35.87 79.37 31.96 84.03 30.47 C 87.31 29.67 91.28 29.72 93.97 32.02 C 96.51 34.44 96.15 38.32 95.22 41.38 C 92.73 49.42 87.39 56.19 84.49 64.06 C 84.52 64.60 84.59 65.67 84.62 66.21 C 88.75 65.48 91.38 61.67 93.50 58.38 C 97.73 49.84 101.86 41.24 106.02 32.66 C 109.95 32.04 113.90 31.54 117.83 30.98 C 116.88 27.58 117.50 24.07 118.74 20.84 C 116.16 21.30 113.58 21.75 111.01 22.20 C 113.28 18.11 114.90 13.49 118.34 10.19 C 122.05 6.77 127.44 7.02 132.13 6.40 C 136.95 6.10 141.24 3.53 146.03 2.96 Z" />
<path fill="#ffffff" opacity="1.00" d=" M 6.02 17.28 C 11.31 9.49 20.41 5.59 29.19 3.19 C 29.59 3.90 30.00 4.59 30.42 5.29 C 24.75 5.98 20.11 10.77 17.21 15.55 C 13.84 21.97 12.04 29.44 13.02 36.68 C 9.52 36.68 5.69 35.48 3.93 32.20 C 1.26 27.40 3.20 21.55 6.02 17.28 Z" />
<path fill="#ffffff" opacity="1.00" d=" M 192.49 30.71 C 197.63 29.89 203.88 29.03 208.12 32.79 C 212.51 36.94 211.64 43.79 209.59 48.89 C 204.63 61.42 191.45 71.67 177.53 69.72 C 171.44 69.08 167.40 62.86 168.03 57.02 C 169.10 44.09 180.11 33.41 192.49 30.71 M 190.61 38.54 C 185.90 45.64 182.30 53.57 180.38 61.89 C 180.23 63.88 179.07 66.74 181.00 68.17 C 183.63 68.21 185.26 65.68 186.82 63.91 C 191.74 57.30 195.45 49.83 198.32 42.13 C 199.40 38.83 200.76 35.31 199.85 31.81 C 195.53 31.53 192.89 35.50 190.61 38.54 Z" />
<path fill="#ffffff" opacity="1.00" d=" M 223.29 32.19 C 228.56 31.46 233.82 30.74 239.08 30.00 C 237.46 33.29 235.89 36.60 234.19 39.85 C 236.85 36.08 240.06 32.35 244.49 30.66 C 248.01 29.51 252.72 29.65 255.07 32.94 C 257.66 36.57 257.28 41.39 256.27 45.50 C 253.86 54.38 248.01 62.38 240.01 67.01 C 234.12 70.41 226.53 71.07 220.29 68.20 C 216.58 75.77 212.93 83.36 209.11 90.87 C 203.87 91.49 198.65 92.31 193.41 92.99 C 203.37 72.73 213.33 52.46 223.29 32.19 M 237.33 39.45 C 230.72 47.60 226.39 57.24 221.23 66.30 C 224.61 68.05 228.28 66.11 230.68 63.65 C 236.59 57.85 240.67 50.34 243.22 42.52 C 243.60 40.50 244.63 37.82 242.94 36.16 C 240.50 35.50 238.80 37.94 237.33 39.45 Z" />
</g>
</svg>
