<?xml version="1.0" encoding="utf-8"?>
<!-- Generated by IcoMoon.io -->
<!DOCTYPE svg PUBLIC "-//W3C//DTD SVG 1.1//EN" "http://www.w3.org/Graphics/SVG/1.1/DTD/svg11.dtd">
<svg version="1.1" xmlns="http://www.w3.org/2000/svg" xmlns:xlink="http://www.w3.org/1999/xlink" width="512" height="512" viewBox="0 0 512 512"><g id="icomoon-ignore">
</g>
<path fill="red" d="M78.816 0h-32c-8.832 0-16 7.152-16 16v480c0 8.848 7.168 16 16 16h32c8.832 0 16-7.152 16-16v-480c0-8.848-7.152-16-16-16zM478.816 304v-224c0-8.848-1.968-16-16-16-71.152 32-320-64-320-64-8.832 0-16 7.152-16 16v240c0 8.848 7.168 16 16 16 0 0 176 57.136 320 48 27.44 9.136 16-7.152 16-16z"></path>
</svg>
