<?xml version="1.0" encoding="utf-8"?>
<!-- Generated by IcoMoon.io -->
<!DOCTYPE svg PUBLIC "-//W3C//DTD SVG 1.1//EN" "http://www.w3.org/Graphics/SVG/1.1/DTD/svg11.dtd">
<svg version="1.1" xmlns="http://www.w3.org/2000/svg" xmlns:xlink="http://www.w3.org/1999/xlink" width="512" height="512" viewBox="0 0 512 512"><g id="icomoon-ignore">
</g>
<path fill="#fff" d="M448 512h-384c-35.328 0-64-28.672-64-64v-384c0-35.328 28.672-64 64-64h288l-64 64h-192c-17.664 0-32 14.336-32 32v320c0 17.696 14.336 32 32 32h320c17.696 0 32-14.304 32-32v-192l64-64v288c0 35.328-28.672 64-64 64zM448 64l-32-32v-32c0 0 96-0.992 96 96h-32l-32-32zM160 352v-96h32l64 64v32h-96zM448 128l-160 160-64-64 160-160 64 64z"></path>
</svg>
